<svg xmlns="http://www.w3.org/2000/svg" viewBox="0 0 294 81" role="img" style="width: auto; height: 100%;"><path d="M19.489,66.963c-1.512,3.456-4.752,5.76-9.361,5.76a10.3,10.3,0,0,1-4.608-1.08l.72-2.3a9.279,9.279,0,0,0,3.888,1.08c5.041,0,7.849-3.672,7.849-8.137V42.336l-7.345,1.8-.36-2.3,7.705-1.872V34.272l-7.345,1.8-.36-2.3L17.978,31.9V19.006a33.047,33.047,0,0,0-7.417-5.328L3.288,22.319l-1.944-1.44,8.5-10.3a39.972,39.972,0,0,1,10.729,7.561V53.281l5.544-4.1V22.967c0-7.057,7.417-11.449,11.521-12.889l1.729.72c-.72,1.728-.648,3.312.36,4.1,7.2,6.12,13.609,12.1,13.609,23.69a39.409,39.409,0,0,1-1.8,11.737c-5.256,2.3-13.177,7.633-16.85,12.961A68.436,68.436,0,0,0,20.569,57.1v5.544c0,4.033,4.1,7.057,8.425,7.921l-.72,2.232A12.2,12.2,0,0,1,19.489,66.963Zm2.376-11.809a63.109,63.109,0,0,1,12.1,4.9c3.6-4.249,10.729-9.145,15.409-11.377A34.4,34.4,0,0,0,50.74,38.592a24.806,24.806,0,0,0-.432-4.752l-21.6,10.441v5.833Zm6.84-22.322,17.282-8.208a52,52,0,0,0-7.777-7.633,4.442,4.442,0,0,1-1.656-3.96c-3.24,1.584-7.849,4.752-7.849,9.793Zm21.026-1.368a27.746,27.746,0,0,0-2.3-4.9L28.706,35.5v6.121Z"/><path d="M60.384,56.665V53.713L65.5,56.882V28.8c0-1.944-2.016-3.528-3.744-5.112l-4.393,4.1-1.584-1.8,6.12-5.617c2.88,2.592,6.193,4.825,6.193,7.633v.144c3.024-2.3,7.057-5.4,10.081-7.921,2.448,2.953,5.113,5.833,7.561,8.281L83.714,30.1c-2.161-2.161-4.321-4.608-5.977-6.409-2.448,1.944-6.625,5.112-9.649,7.345V58.61l3.24,2.3c1.8-1.44,4.176-3.1,6.409-4.824l1.584,1.872c-2.808,1.944-5.112,3.744-8.065,6.048A75.876,75.876,0,0,0,60.384,56.665Z"/><path d="M88.247,58.826V56.378a29.564,29.564,0,0,1,4.1.288V31.679a23.122,23.122,0,0,0-.36-4.1c4.968-1.224,8.064-3.672,11.521-7.128,2.592,1.728,7.489,4.824,11.881,6.265a24.583,24.583,0,0,1,3.168-4.969l2.16,1.368c-1.728,2.736-2.952,3.744-2.952,5.617v23.33a36.765,36.765,0,0,0,.36,5.545c-4.32.648-7.993,2.952-11.449,6.408C103.368,61.85,94.223,58.826,88.247,58.826Zm6.7-1.8a51.269,51.269,0,0,1,11.449,3.816,24.443,24.443,0,0,1,8.856-5.185c-.072-1.224-.072-2.3-.072-3.6V29.231a53.333,53.333,0,0,1-11.305-5.544,25.041,25.041,0,0,1-9,5.544,23.3,23.3,0,0,1,.072,2.448Z"/><path d="M123.6,73.3c4.248-2.952,9.145-6.625,11.449-9.073-.792-3.24-1.224-6.625-1.224-13.393V27.791c-1.224-1.152-2.52-2.592-3.816-4.033l-5.04,4.752-1.584-1.8,6.913-6.409a60.746,60.746,0,0,0,4.969,5.472l3.6-2.952,1.656,2.016-4.1,3.384v22.61a56.5,56.5,0,0,0,1.44,13.9c-2.3,3.168-7.705,7.345-12.673,10.513ZM138,5.757l1.944,1.656-6.121,8.208-1.944-1.656Z"/><path d="M146.351,57.674V55.3a20.029,20.029,0,0,1,4.1.288V31.607c0-1.3-.144-2.3-.288-4.032A37.161,37.161,0,0,0,161.76,20.3a90.454,90.454,0,0,0,13.249,9.145L153.047,46.873v9.5a46.809,46.809,0,0,1,9.289,4.464l11.881-11.233,1.512,1.872L162.624,64.01C159.527,61.922,152.687,57.674,146.351,57.674Zm6.7-13.825,17.642-14.041c-3.24-2.016-6.7-4.464-9-6.193a33.347,33.347,0,0,1-8.712,5.473c0,.648.072,1.368.072,2.448Z"/><path d="M179.111,58.394V55.946a24.7,24.7,0,0,1,4.1.432V32.112c0-1.3-.144-2.3-.288-4.033,4.464-1.8,6.625-4.608,9.649-7.632a70.1,70.1,0,0,0,10.873,4.248l2.16-3.24,2.16,1.008-3.24,5.112A71.429,71.429,0,0,1,193.152,23.4c-2.088,2.16-4.1,4.393-7.417,6.121,0,.648.072,1.44.072,2.52V57.026a41.737,41.737,0,0,1,9.433,3.96l9.648-9.937,1.873,1.512L195.528,64.01C190.56,60.7,184.223,58.394,179.111,58.394Z"/><path d="M213.022,56.809V54.073l4.9,2.808v-30.6H210.5l2.16-2.3h5.256V14.542l2.592-.648V23.975h13.321l-1.08,2.3H220.511V58.466c1.08.792,1.944,1.368,3.24,2.376,2.3-2.3,6.409-6.337,9.289-8.641l1.512,1.944c-2.376,1.944-7.488,6.769-10.657,9.937A67.935,67.935,0,0,0,213.022,56.809Z"/><path d="M267.455,58.61c-1.729,4.9-5.9,8.785-10.8,12.457l-1.3-2.088c4.752-3.457,10.369-8.425,10.369-14.474V39.816h-7.92v-2.3h7.92V31.32h-7.92v-2.3h7.92v-8.5a21.875,21.875,0,0,0-7.488-6.769l-7.345,8.713-1.8-1.584,8.5-10.3a29.6,29.6,0,0,1,9.792,8.065l6.48-8.569,4.752,3.24a4.88,4.88,0,0,0,2.665,1.08c.792,0,1.44-.432,2.16-2.3l1.944,1.224c-.72,2.088-1.944,3.384-4.032,3.384a8.321,8.321,0,0,1-4.176-1.44l-2.736-1.872-6.121,7.92v7.7h7.921v2.3h-7.921v6.192h7.921v2.3h-7.921V54.145c0,2.952,2.592,5.4,4.464,6.7a46.687,46.687,0,0,1,9-8.713l1.656,1.8a38.575,38.575,0,0,0-9.793,10.081A14.728,14.728,0,0,1,267.455,58.61Z"/></svg>
