<svg xmlns="http://www.w3.org/2000/svg" viewBox="0 0 130 30" role="img" style="width: auto;height: 100%;"><polygon points="33.2 11.05 39.18 11.05 39.18 8.06 30.05 8.06 30.05 22.23 33.23 22.23 33.23 16.93 38.46 16.93 38.46 14.05 33.2 14.05 33.2 11.05"/><path d="M44.14,11.99a5.27,5.27,0,1,0,5.28,5.26,5.13,5.13,0,0,0-5-5.261h0Q44.282,11.986,44.14,11.99Zm0,7.74a2.25,2.25,0,0,1-2.24-2.48,2.25,2.25,0,1,1,4.48,0A2.23,2.23,0,0,1,44.14,19.73Z"/><path d="M53.33,13.63V12.34H50.39v9.93h3V17.89c0-2,1.1-2.7,2.32-2.7a4.12,4.12,0,0,1,1,.1V12.34a3,3,0,0,0-.8-0.1A2.81,2.81,0,0,0,53.33,13.63Z"/><path d="M69.32,11.99a3.41,3.41,0,0,0-3.08,1.56,3.07,3.07,0,0,0-2.94-1.56,3.46,3.46,0,0,0-2.86,1.44V12.34h-2.9v9.93h3V16.51a1.61,1.61,0,0,1,1.5-1.717h0.148a1.51,1.51,0,0,1,1.6,1.68v5.76h3V16.49a1.61,1.61,0,0,1,1.515-1.7h0.145a1.51,1.51,0,0,1,1.58,1.68v5.76H73V15.79A3.48,3.48,0,0,0,69.32,11.99Z"/><rect x="74.57" y="12.29" width="3.04" height="9.93"/><path d="M76.07,7.48a1.78,1.78,0,1,0,.02,0H76.07Z"/><path d="M89.04,7.76h-3v5.32c-0.24-.38-1-1-2.68-1a4.85,4.85,0,0,0-4.831,4.869h0q0,0.156.011,0.311a4.92,4.92,0,0,0,4.611,5.211h0q0.154,0.009.309,0.009a3.21,3.21,0,0,0,2.66-1.18,6.9,6.9,0,0,0,.08,1h2.92c0-.22-0.08-0.88-0.08-1.78V7.76Zm-5.2,12a2.24,2.24,0,0,1-2.24-2.51,2.25,2.25,0,1,1,4.48,0,2.24,2.24,0,0,1-2.24,2.48v0.03Z"/><path d="M99.04,15.83c0-2-1.18-3.84-4.4-3.84-2.92,0-4.24,1.88-4.36,3.3l2.64,0.54a1.6,1.6,0,0,1,1.68-1.49,1.23,1.23,0,0,1,1.444.97h0a0.994,0.994,0,0,1,.016.11,0.68,0.68,0,0,1-.679.681H95.34L93,16.46a3.05,3.05,0,0,0-2.94,3,3.48,3.48,0,0,0,6.24,1.62,4.77,4.77,0,0,0,.1,1.12h2.74a9.75,9.75,0,0,1-.12-1.54V15.83h0.02Zm-3,2.5a1.71,1.71,0,0,1-1.82,2,1,1,0,0,1-1.18-1,1.1,1.1,0,0,1,1.1-1.1h0.02l1.88-.3v0.4Z"/><path d="M106.46,12.05a3.57,3.57,0,0,0-2.86,1.18V7.76h-3V22.23h2.94V21.11a3.2,3.2,0,0,0,2.8,1.34c2.78,0,4.74-2.18,4.74-5.22S109.34,12.05,106.46,12.05Zm-0.66,7.68a2.26,2.26,0,0,1-2.26-2.48,2.26,2.26,0,1,1,4.5,0A2.23,2.23,0,0,1,105.8,19.73Z"/><rect x="112.05" y="7.76" width="3.04" height="14.47"/><path d="M125.98,17.09c0-3.2-1.9-5.1-5-5.1a5,5,0,0,0-5.006,4.994h0q0,0.123.006,0.246a5.06,5.06,0,0,0,4.808,5.3h0q0.184,0.009.367,0a4.46,4.46,0,0,0,4.64-3.19l-2.54-.72a1.92,1.92,0,0,1-2,1.3A2.15,2.15,0,0,1,119,18h6.92A6.111,6.111,0,0,0,125.98,17.09Zm-6.92-1a1.89,1.89,0,0,1,2-1.68,1.78,1.78,0,0,1,1.988,1.544q0.009,0.068.012,0.136h-4Z"/><polygon points="12.948 2.38 0.81 27.63 12.948 17.7 12.948 2.38"/><polygon points="12.948 2.38 22.375 20.783 12.948 17.7 12.948 2.38" style="opacity:0.75;isolation:isolate"/><polygon points="12.948 26.351 22.375 20.783 12.948 17.7 12.948 26.351" style="opacity:0.5;isolation:isolate"/><polygon points="0.81 27.63 12.948 17.7 12.948 26.351 0.81 27.63" style="opacity:0.25;isolation:isolate"/></svg>
