<svg xmlns="http://www.w3.org/2000/svg" viewBox="0 0 130 30" role="img" style="width: auto;height: 100%;"><polygon points="33.2 11.05 39.18 11.05 39.18 8.06 30.05 8.06 30.05 22.23 33.23 22.23 33.23 16.93 38.46 16.93 38.46 14.05 33.2 14.05 33.2 11.05" style="fill:inherit"/><path d="M44.14,11.99a5.27,5.27,0,1,0,5.28,5.26,5.13,5.13,0,0,0-5-5.261Q44.282,11.986,44.14,11.99Zm0,7.74a2.25,2.25,0,0,1-2.24-2.48,2.25,2.25,0,1,1,4.48,0,2.23,2.23,0,0,1-2.24,2.48Z" style="fill:inherit"/><path d="M53.33,13.63V12.34H50.39v9.93h3V17.89c0-2,1.1-2.7,2.32-2.7a4.12,4.12,0,0,1,1,.1V12.34a3,3,0,0,0-.8-.1A2.81,2.81,0,0,0,53.33,13.63Z" style="fill:inherit"/><path d="M69.32,11.99a3.41,3.41,0,0,0-3.08,1.56,3.07,3.07,0,0,0-2.94-1.56,3.46,3.46,0,0,0-2.86,1.44V12.34h-2.9v9.93h3V16.51a1.61,1.61,0,0,1,1.5-1.717q.072,0,.144,0a1.51,1.51,0,0,1,1.6,1.68v5.76h3V16.49a1.61,1.61,0,0,1,1.517-1.7q.072,0,.143,0a1.51,1.51,0,0,1,1.58,1.68v5.76H73V15.79a3.48,3.48,0,0,0-3.68-3.8Z" style="fill:inherit"/><rect x="74.57" y="12.29" width="3.04" height="9.93" style="fill:inherit"/><path d="M76.07,7.48a1.78,1.78,0,1,0,.02,0Z" style="fill:inherit"/><path d="M89.04,7.76h-3v5.32c-.24-.38-1-1-2.68-1a4.85,4.85,0,0,0-4.831,4.869q0,.156.011.311a4.92,4.92,0,0,0,4.611,5.211q.154.009.309.009a3.21,3.21,0,0,0,2.66-1.18,6.9,6.9,0,0,0,.08,1h2.92c0-.22-.08-.88-.08-1.78Zm-5.2,12a2.24,2.24,0,0,1-2.24-2.51,2.25,2.25,0,1,1,4.48,0,2.24,2.24,0,0,1-2.24,2.48Z" style="fill:inherit"/><path d="M99.04,15.83c0-2-1.18-3.84-4.4-3.84-2.92,0-4.24,1.88-4.36,3.3l2.64.54a1.6,1.6,0,0,1,1.68-1.49,1.23,1.23,0,0,1,1.444.97q.011.054.016.11a.68.68,0,0,1-.679.681H95.34L93,16.46a3.05,3.05,0,0,0-2.94,3,3.48,3.48,0,0,0,6.24,1.62,4.77,4.77,0,0,0,.1,1.12h2.74a9.75,9.75,0,0,1-.12-1.54V15.83Zm-3,2.5a1.71,1.71,0,0,1-1.82,2,1,1,0,0,1-1.18-1,1.1,1.1,0,0,1,1.1-1.1h.02l1.88-.3v.4Z" style="fill:inherit"/><path d="M106.46,12.05a3.57,3.57,0,0,0-2.86,1.18V7.76h-3V22.23h2.94V21.11a3.2,3.2,0,0,0,2.8,1.34c2.78,0,4.74-2.18,4.74-5.22S109.34,12.05,106.46,12.05Zm-.66,7.68a2.26,2.26,0,0,1-2.26-2.48,2.26,2.26,0,1,1,4.5,0,2.23,2.23,0,0,1-2.24,2.48Z" style="fill:inherit"/><rect x="112.05" y="7.76" width="3.04" height="14.47" style="fill:inherit"/><path d="M125.98,17.09c0-3.2-1.9-5.1-5-5.1a5,5,0,0,0-5.006,4.994q0,.123.006.246a5.06,5.06,0,0,0,4.813,5.3q.184.009.367,0a4.46,4.46,0,0,0,4.64-3.19l-2.54-.72a1.92,1.92,0,0,1-2,1.3A2.15,2.15,0,0,1,119,18h6.92A6.111,6.111,0,0,0,125.98,17.09Zm-6.92-1a1.89,1.89,0,0,1,2-1.68,1.78,1.78,0,0,1,1.988,1.544q.009.068.012.136Z" style="fill:inherit"/><polygon points="9.6 2.34 4.02 25.29 9.6 18.53 9.6 2.34" style="fill:inherit;opacity:0.15000000596046448;isolation:isolate"/><polygon points="9.6 2.34 22.43 14.34 9.6 18.53 9.6 2.34" style="fill:inherit"/><polygon points="9.6 27.66 22.43 14.34 9.6 18.53 9.6 27.66" style="fill:inherit;opacity:0.699999988079071;isolation:isolate"/><polygon points="4.02 25.29 9.6 18.53 9.6 27.66 4.02 25.29" style="fill:inherit;opacity:0.44999998807907104;isolation:isolate"/></svg>
