<svg xmlns="http://www.w3.org/2000/svg" width="273.3" height="222.3" viewBox="0 0 273.3 222.3" style="width:100%;max-width:20px;height:auto;vertical-align:middle;" role="img"><title>Twitter</title><path d="M273.3,26.3a109.775,109.775,0,0,1-32.2,8.8,56.072,56.072,0,0,0,24.7-31,111.919,111.919,0,0,1-35.6,13.6,56.1,56.1,0,0,0-97,38.4,54.036,54.036,0,0,0,1.5,12.8A159.292,159.292,0,0,1,19.1,10.3,56.118,56.118,0,0,0,36.5,85.2a56.064,56.064,0,0,1-25.4-7v.7a56.11,56.11,0,0,0,45,55,55.65,55.65,0,0,1-14.8,2,62.391,62.391,0,0,1-10.6-1,56.241,56.241,0,0,0,52.4,39,112.874,112.874,0,0,1-69.7,24A119.02,119.02,0,0,1,0,197.1a158.828,158.828,0,0,0,86,25.2c103.2,0,159.6-85.5,159.6-159.6,0-2.4-.1-4.9-.2-7.3A113.593,113.593,0,0,0,273.3,26.3Z"/></svg>
