<?xml version="1.0" encoding="utf-8"?>
<svg version="1.1" xmlns="http://www.w3.org/2000/svg" xmlns:xlink="http://www.w3.org/1999/xlink" x="0px" y="0px"
   viewBox="0 0 645 100" style="enable-background:new 0 0 645 100;" xml:space="preserve">
<g id="foots">
  <polygon style="fill:#232222;" points="9.3,16.3 4.7,27.6 9.3,23.5"/>
  <polygon style="opacity:0.75;fill:#232222;" points="9.3,16.3 16.9,27.8 9.3,23.5"/>
  <polygon style="opacity:0.5;fill:#232222;" points="9.3,31.1 16.9,27.8 9.3,23.5"/>
  <polygon style="opacity:0.25;fill:#232222;" points="4.7,27.6 9.3,23.5 9.3,31.1"/>
  <polygon style="fill:#232222;" points="38.3,15.6 32.7,29.4 38.3,22.6"/>
  <polygon style="opacity:0.75;fill:#232222;" points="38.3,15.6 47.6,18.3 38.3,22.6"/>
  <polygon style="opacity:0.5;fill:#232222;" points="38.3,31.8 47.6,18.3 38.3,22.6"/>
  <polygon style="opacity:0.25;fill:#232222;" points="32.7,29.4 38.3,22.6 38.3,31.8"/>
  <polygon style="fill:#232222;" points="75.3,14.5 63.2,20.3 75.3,26.2"/>
  <polygon style="opacity:0.75;fill:#232222;" points="75.3,14.5 79.2,23.1 75.3,26.2"/>
  <polygon style="opacity:0.5;fill:#232222;" points="75.3,32.8 79.2,23.1 75.3,26.2"/>
  <polygon style="opacity:0.25;fill:#232222;" points="63.2,20.3 75.3,26.2 75.3,32.8"/>
  <polygon style="fill:#232222;" points="101.3,14.5 91.9,33.8 101.3,26.2"/>
  <polygon style="opacity:0.75;fill:#232222;" points="101.3,14.5 108.7,28.5 101.3,26.2"/>
  <polygon style="opacity:0.5;fill:#232222;" points="101.3,32.8 108.7,28.5 101.3,26.2"/>
  <polygon style="opacity:0.25;fill:#232222;" points="91.9,33.8 101.3,26.2 101.3,32.8"/>
  <polygon style="fill:#232222;" points="126.3,14.5 124.5,25.7 126.3,26.2"/>
  <polygon style="opacity:0.75;fill:#232222;" points="126.3,14.5 135.6,23.1 126.3,26.2"/>
  <polygon style="opacity:0.5;fill:#232222;" points="126.3,32.8 135.6,23.1 126.3,26.2"/>
  <polygon style="opacity:0.25;fill:#232222;" points="124.5,25.7 126.3,26.2 126.3,32.8"/>
  <polygon style="fill:#232222;" points="195.3,44.1 199.4,55.3 195.3,55.8"/>
  <polygon style="opacity:0.75;fill:#232222;" points="195.3,44.1 191.4,55.4 195.3,55.8"/>
  <polygon style="opacity:0.5;fill:#232222;" points="195.3,62.4 191.4,55.4 195.3,55.8"/>
  <polygon style="opacity:0.25;fill:#232222;" points="199.4,55.3 195.3,55.8 195.3,62.4"/>
  <polygon style="fill:#232222;" points="164.3,45 173.8,61.6 164.3,51.3"/>
  <polygon style="opacity:0.75;fill:#232222;" points="164.3,45 157.7,53.7 164.3,51.3"/>
  <polygon style="opacity:0.5;fill:#232222;" points="164.3,58 157.7,53.7 164.3,51.3"/>
  <polygon style="opacity:0.25;fill:#232222;" points="173.8,61.6 164.3,51.3 164.3,58"/>
  <polygon style="fill:#232222;" points="138.3,44.1 142.4,60.7 138.3,55.8"/>
  <polygon style="opacity:0.75;fill:#232222;" points="138.3,44.1 129,52.8 138.3,55.8"/>
  <polygon style="opacity:0.5;fill:#232222;" points="138.3,62.4 129,52.8 138.3,55.8"/>
  <polygon style="opacity:0.25;fill:#232222;" points="142.4,60.7 138.3,55.8 138.3,62.4"/>
  <polygon style="fill:#232222;" points="110.3,45.7 115.8,61 110.3,54.3"/>
  <polygon style="opacity:0.75;fill:#232222;" points="110.3,45.7 97.7,50.2 110.3,54.3"/>
  <polygon style="opacity:0.5;fill:#232222;" points="101.9,56 97.5,50.2 110.1,54.3"/>
  <polygon style="opacity:0.25;fill:#232222;" points="115.6,61 110.1,54.3 101.9,56"/>
  <polygon style="fill:#232222;" points="71.3,44.1 80.8,45.9 71.3,55.8"/>
  <polygon style="opacity:0.75;fill:#232222;" points="71.3,44.1 67.4,58.1 71.3,55.8"/>
  <polygon style="opacity:0.5;fill:#232222;" points="71.3,62.4 67.4,58.1 71.3,55.8"/>
  <polygon style="opacity:0.25;fill:#232222;" points="80.8,45.9 71.3,55.8 71.3,62.4"/>
  <polygon style="fill:#232222;" points="43.3,44.1 46.5,55.3 43.3,55.8"/>
  <polygon style="opacity:0.75;fill:#232222;" points="43.3,44.1 35.5,52.8 43.3,55.8"/>
  <polygon style="opacity:0.5;fill:#232222;" points="43.3,62.4 35.5,52.8 43.3,55.8"/>
  <polygon style="opacity:0.25;fill:#232222;" points="46.5,55.3 43.3,55.8 43.3,62.4"/>
  <polygon style="fill:#232222;" points="14.3,44.1 18.4,60.7 14.3,55.8"/>
  <polygon style="opacity:0.75;fill:#232222;" points="14.3,44.1 5,52.8 14.3,55.8"/>
  <polygon style="opacity:0.5;fill:#232222;" points="14.3,62.4 5,52.8 14.3,55.8"/>
  <polygon style="opacity:0.25;fill:#232222;" points="18.4,60.7 14.3,55.8 14.3,62.4"/>
  <polygon style="fill:#232222;" points="9.3,91.2 4.7,79.8 9.3,83.9"/>
  <polygon style="opacity:0.75;fill:#232222;" points="9.3,91.2 16.9,79.7 9.3,83.9"/>
  <polygon style="opacity:0.5;fill:#232222;" points="9.3,76.3 16.9,79.7 9.3,83.9"/>
  <polygon style="opacity:0.25;fill:#232222;" points="4.7,79.8 9.3,83.9 9.3,76.3"/>
  <polygon style="fill:#232222;" points="38.3,91.9 32.7,78 38.3,84.9"/>
  <polygon style="opacity:0.75;fill:#232222;" points="38.3,91.9 47.6,89.1 38.3,84.9"/>
  <polygon style="opacity:0.5;fill:#232222;" points="38.3,75.6 47.6,89.1 38.3,84.9"/>
  <polygon style="opacity:0.25;fill:#232222;" points="32.7,78 38.3,84.9 38.3,75.6"/>
  <polygon style="fill:#232222;" points="75.3,93 63.2,87.1 75.3,81.3"/>
  <polygon style="opacity:0.75;fill:#232222;" points="75.3,93 79.2,84.3 75.3,81.3"/>
  <polygon style="opacity:0.5;fill:#232222;" points="75.3,74.7 79.2,84.3 75.3,81.3"/>
  <polygon style="opacity:0.25;fill:#232222;" points="63.2,87.1 75.3,81.3 75.3,74.7"/>
  <polygon style="fill:#232222;" points="101.3,93 91.9,73.7 101.3,81.3"/>
  <polygon style="opacity:0.75;fill:#232222;" points="101.3,93 108.7,78.9 101.3,81.3"/>
  <polygon style="opacity:0.5;fill:#232222;" points="101.3,74.7 108.7,78.9 101.3,81.3"/>
  <polygon style="opacity:0.25;fill:#232222;" points="91.9,73.7 101.3,81.3 101.3,74.7"/>
  <polygon style="fill:#232222;" points="126.3,93 124.5,81.8 126.3,81.3"/>
  <polygon style="opacity:0.75;fill:#232222;" points="126.3,93 135.6,84.3 126.3,81.3"/>
  <polygon style="opacity:0.5;fill:#232222;" points="126.3,74.7 135.6,84.3 126.3,81.3"/>
  <polygon style="opacity:0.25;fill:#232222;" points="124.5,81.8 126.3,81.3 126.3,74.7"/>
  <polygon style="fill:#232222;" points="156.3,91.6 152.3,77.6 156.3,82.5"/>
  <polygon style="opacity:0.75;fill:#232222;" points="156.3,91.6 165.6,88.3 156.3,82.5"/>
  <polygon style="opacity:0.5;fill:#232222;" points="156.3,75.9 165.6,88.3 156.3,82.5"/>
  <polygon style="opacity:0.25;fill:#232222;" points="152.3,77.6 156.3,82.5 156.3,75.9"/>
  <polygon style="fill:#232222;" points="190.3,93 180.9,84.5 190.3,81.3"/>
  <polygon style="opacity:0.75;fill:#232222;" points="190.3,93 196.9,89.7 190.3,81.3"/>
  <polygon style="opacity:0.5;fill:#232222;" points="190.3,74.7 196.9,89.7 190.3,81.3"/>
  <polygon style="opacity:0.25;fill:#232222;" points="180.9,84.5 190.3,81.3 190.3,74.7"/>
  <polygon style="fill:#232222;" points="606.3,14.5 610.4,25.7 606.3,26.2"/>
  <polygon style="opacity:0.75;fill:#232222;" points="606.3,14.5 602.4,25.8 606.3,26.2"/>
  <polygon style="opacity:0.5;fill:#232222;" points="606.3,32.8 602.4,25.8 606.3,26.2"/>
  <polygon style="opacity:0.25;fill:#232222;" points="610.4,25.7 606.3,26.2 606.3,32.8"/>
  <polygon style="fill:#232222;" points="576.3,15.4 585.8,32 576.3,21.7"/>
  <polygon style="opacity:0.75;fill:#232222;" points="576.3,15.4 569.7,24.1 576.3,21.7"/>
  <polygon style="opacity:0.5;fill:#232222;" points="576.3,28.3 569.7,24.1 576.3,21.7"/>
  <polygon style="opacity:0.25;fill:#232222;" points="585.8,32 576.3,21.7 576.3,28.3"/>
  <polygon style="fill:#232222;" points="550.3,14.5 554.4,31.1 550.3,26.2"/>
  <polygon style="opacity:0.75;fill:#232222;" points="550.3,14.5 541,23.1 550.3,26.2"/>
  <polygon style="opacity:0.5;fill:#232222;" points="550.3,32.8 541,23.1 550.3,26.2"/>
  <polygon style="opacity:0.25;fill:#232222;" points="554.4,31.1 550.3,26.2 550.3,32.8"/>
  <polygon style="fill:#232222;" points="522.3,16.1 527.8,31.4 522.3,24.7"/>
  <polygon style="opacity:0.75;fill:#232222;" points="522.3,16.1 509.7,20.6 522.3,24.7"/>
  <polygon style="opacity:0.5;fill:#232222;" points="513.4,26.4 508.9,20.6 521.6,24.7"/>
  <polygon style="opacity:0.25;fill:#232222;" points="527.1,31.4 521.6,24.7 513.4,26.4"/>
  <polygon style="fill:#232222;" points="485.3,14.5 494.8,16.3 485.3,26.2"/>
  <polygon style="opacity:0.75;fill:#232222;" points="485.3,14.5 481.4,28.5 485.3,26.2"/>
  <polygon style="opacity:0.5;fill:#232222;" points="485.3,32.8 481.4,28.5 485.3,26.2"/>
  <polygon style="opacity:0.25;fill:#232222;" points="494.8,16.3 485.3,26.2 485.3,32.8"/>
  <polygon style="fill:#232222;" points="459.3,14.5 462.5,25.7 459.3,26.2"/>
  <polygon style="opacity:0.75;fill:#232222;" points="459.3,14.5 451.5,23.1 459.3,26.2"/>
  <polygon style="opacity:0.5;fill:#232222;" points="459.3,32.8 451.5,23.1 459.3,26.2"/>
  <polygon style="opacity:0.25;fill:#232222;" points="462.5,25.7 459.3,26.2 459.3,32.8"/>
  <polygon style="fill:#232222;" points="432.3,14.5 436.4,31.1 432.3,26.2"/>
  <polygon style="opacity:0.75;fill:#232222;" points="432.3,14.5 423,23.1 432.3,26.2"/>
  <polygon style="opacity:0.5;fill:#232222;" points="432.3,32.8 423,23.1 432.3,26.2"/>
  <polygon style="opacity:0.25;fill:#232222;" points="436.4,31.1 432.3,26.2 432.3,32.8"/>
  <polygon style="fill:#232222;" points="399.3,16.3 404,27.6 399.3,23.5"/>
  <polygon style="opacity:0.75;fill:#232222;" points="399.3,16.3 391.8,27.8 399.3,23.5"/>
  <polygon style="opacity:0.5;fill:#232222;" points="399.3,31.1 391.8,27.8 399.3,23.5"/>
  <polygon style="opacity:0.25;fill:#232222;" points="404,27.6 399.3,23.5 399.3,31.1"/>
  <polygon style="fill:#232222;" points="370.3,15.6 376,29.4 370.3,22.6"/>
  <polygon style="opacity:0.75;fill:#232222;" points="370.3,15.6 361.1,18.3 370.3,22.6"/>
  <polygon style="opacity:0.5;fill:#232222;" points="370.3,31.8 361.1,18.3 370.3,22.6"/>
  <polygon style="opacity:0.25;fill:#232222;" points="376,29.4 370.3,22.6 370.3,31.8"/>
  <polygon style="fill:#232222;" points="334.3,14.5 346.4,20.3 334.3,26.2"/>
  <polygon style="opacity:0.75;fill:#232222;" points="334.3,14.5 330.4,23.1 334.3,26.2"/>
  <polygon style="opacity:0.5;fill:#232222;" points="334.3,32.8 330.4,23.1 334.3,26.2"/>
  <polygon style="opacity:0.25;fill:#232222;" points="346.4,20.3 334.3,26.2 334.3,32.8"/>
  <polygon style="fill:#232222;" points="308.3,14.5 317.8,33.8 308.3,26.2"/>
  <polygon style="opacity:0.75;fill:#232222;" points="308.3,14.5 301,28.5 308.3,26.2"/>
  <polygon style="opacity:0.5;fill:#232222;" points="308.3,32.8 301,28.5 308.3,26.2"/>
  <polygon style="opacity:0.25;fill:#232222;" points="317.8,33.8 308.3,26.2 308.3,32.8"/>
  <polygon style="fill:#232222;" points="283.3,14.5 285.2,25.7 283.3,26.2"/>
  <polygon style="opacity:0.75;fill:#232222;" points="283.3,14.5 274.1,23.1 283.3,26.2"/>
  <polygon style="opacity:0.5;fill:#232222;" points="283.3,32.8 274.1,23.1 283.3,26.2"/>
  <polygon style="opacity:0.25;fill:#232222;" points="285.2,25.7 283.3,26.2 283.3,32.8"/>
  <polygon style="fill:#232222;" points="218.3,44.1 214.3,55.3 218.3,55.8"/>
  <polygon style="opacity:0.75;fill:#232222;" points="218.3,44.1 222.2,55.4 218.3,55.8"/>
  <polygon style="opacity:0.5;fill:#232222;" points="218.3,62.4 222.2,55.4 218.3,55.8"/>
  <polygon style="opacity:0.25;fill:#232222;" points="214.3,55.3 218.3,55.8 218.3,62.4"/>
  <polygon style="fill:#232222;" points="249.3,45 239.9,61.6 249.3,51.3"/>
  <polygon style="opacity:0.75;fill:#232222;" points="249.3,45 255.9,53.7 249.3,51.3"/>
  <polygon style="opacity:0.5;fill:#232222;" points="249.3,58 255.9,53.7 249.3,51.3"/>
  <polygon style="opacity:0.25;fill:#232222;" points="239.9,61.6 249.3,51.3 249.3,58"/>
  <polygon style="fill:#232222;" points="393.3,44.1 389.3,60.7 393.3,55.8"/>
  <polygon style="opacity:0.75;fill:#232222;" points="393.3,44.1 402.6,52.8 393.3,55.8"/>
  <polygon style="opacity:0.5;fill:#232222;" points="393.3,62.4 402.6,52.8 393.3,55.8"/>
  <polygon style="opacity:0.25;fill:#232222;" points="389.3,60.7 393.3,55.8 393.3,62.4"/>
  <polygon style="fill:#232222;" points="424.3,45.9 419.7,57.2 424.3,53.2"/>
  <polygon style="opacity:0.75;fill:#232222;" points="424.3,45.9 431.9,57.4 424.3,53.2"/>
  <polygon style="opacity:0.5;fill:#232222;" points="424.3,60.7 431.9,57.4 424.3,53.2"/>
  <polygon style="opacity:0.25;fill:#232222;" points="419.7,57.2 424.3,53.2 424.3,60.7"/>
  <polygon style="fill:#232222;" points="453.3,45.2 447.7,59 453.3,52.2"/>
  <polygon style="opacity:0.75;fill:#232222;" points="453.3,45.2 462.6,47.9 453.3,52.2"/>
  <polygon style="opacity:0.5;fill:#232222;" points="453.3,61.4 462.6,47.9 453.3,52.2"/>
  <polygon style="opacity:0.25;fill:#232222;" points="447.7,59 453.3,52.2 453.3,61.4"/>
  <polygon style="fill:#232222;" points="489.3,44.1 477.2,49.9 489.3,55.8"/>
  <polygon style="opacity:0.75;fill:#232222;" points="489.3,44.1 493.2,52.8 489.3,55.8"/>
  <polygon style="opacity:0.5;fill:#232222;" points="489.3,62.4 493.2,52.8 489.3,55.8"/>
  <polygon style="opacity:0.25;fill:#232222;" points="477.2,49.9 489.3,55.8 489.3,62.4"/>
  <polygon style="fill:#232222;" points="515.3,44.1 505.9,63.4 515.3,55.8"/>
  <polygon style="opacity:0.75;fill:#232222;" points="515.3,44.1 522.7,58.1 515.3,55.8"/>
  <polygon style="opacity:0.5;fill:#232222;" points="515.3,62.4 522.7,58.1 515.3,55.8"/>
  <polygon style="opacity:0.25;fill:#232222;" points="505.9,63.4 515.3,55.8 515.3,62.4"/>
  <polygon style="fill:#232222;" points="540.3,44.1 538.5,55.3 540.3,55.8"/>
  <polygon style="opacity:0.75;fill:#232222;" points="540.3,44.1 549.6,52.8 540.3,55.8"/>
  <polygon style="opacity:0.5;fill:#232222;" points="540.3,62.4 549.6,52.8 540.3,55.8"/>
  <polygon style="opacity:0.25;fill:#232222;" points="538.5,55.3 540.3,55.8 540.3,62.4"/>
  <polygon style="fill:#232222;" points="572.3,45.5 568.3,59.4 572.3,54.5"/>
  <polygon style="opacity:0.75;fill:#232222;" points="572.3,45.5 581.6,48.8 572.3,54.5"/>
  <polygon style="opacity:0.5;fill:#232222;" points="572.3,61.1 581.6,48.8 572.3,54.5"/>
  <polygon style="opacity:0.25;fill:#232222;" points="568.3,59.4 572.3,54.5 572.3,61.1"/>
  <polygon style="fill:#232222;" points="605.3,44.1 595.9,52.6 605.3,55.8"/>
  <polygon style="opacity:0.75;fill:#232222;" points="605.3,44.1 611.9,47.4 605.3,55.8"/>
  <polygon style="opacity:0.5;fill:#232222;" points="605.3,62.4 611.9,47.4 605.3,55.8"/>
  <polygon style="opacity:0.25;fill:#232222;" points="595.9,52.6 605.3,55.8 605.3,62.4"/>
  <polygon style="fill:#232222;" points="606.3,93 610.4,81.8 606.3,81.3"/>
  <polygon style="opacity:0.75;fill:#232222;" points="606.3,93 602.4,81.6 606.3,81.3"/>
  <polygon style="opacity:0.5;fill:#232222;" points="606.3,74.7 602.4,81.6 606.3,81.3"/>
  <polygon style="opacity:0.25;fill:#232222;" points="610.4,81.8 606.3,81.3 606.3,74.7"/>
  <polygon style="fill:#232222;" points="576.3,92 585.8,75.4 576.3,85.7"/>
  <polygon style="opacity:0.75;fill:#232222;" points="576.3,92 569.7,83.4 576.3,85.7"/>
  <polygon style="opacity:0.5;fill:#232222;" points="576.3,79.1 569.7,83.4 576.3,85.7"/>
  <polygon style="opacity:0.25;fill:#232222;" points="585.8,75.4 576.3,85.7 576.3,79.1"/>
  <polygon style="fill:#232222;" points="550.3,93 554.4,76.4 550.3,81.3"/>
  <polygon style="opacity:0.75;fill:#232222;" points="550.3,93 541,84.3 550.3,81.3"/>
  <polygon style="opacity:0.5;fill:#232222;" points="550.3,74.7 541,84.3 550.3,81.3"/>
  <polygon style="opacity:0.25;fill:#232222;" points="554.4,76.4 550.3,81.3 550.3,74.7"/>
  <polygon style="fill:#232222;" points="522.3,91.4 527.8,76.1 522.3,82.8"/>
  <polygon style="opacity:0.75;fill:#232222;" points="522.3,91.4 509.7,86.9 522.3,82.8"/>
  <polygon style="opacity:0.5;fill:#232222;" points="513.4,81.1 508.9,86.9 521.6,82.8"/>
  <polygon style="opacity:0.25;fill:#232222;" points="527.1,76.1 521.6,82.8 513.4,81.1"/>
  <polygon style="fill:#232222;" points="485.3,93 494.8,91.2 485.3,81.3"/>
  <polygon style="opacity:0.75;fill:#232222;" points="485.3,93 481.4,78.9 485.3,81.3"/>
  <polygon style="opacity:0.5;fill:#232222;" points="485.3,74.7 481.4,78.9 485.3,81.3"/>
  <polygon style="opacity:0.25;fill:#232222;" points="494.8,91.2 485.3,81.3 485.3,74.7"/>
  <polygon style="fill:#232222;" points="459.3,93 462.5,81.8 459.3,81.3"/>
  <polygon style="opacity:0.75;fill:#232222;" points="459.3,93 451.5,84.3 459.3,81.3"/>
  <polygon style="opacity:0.5;fill:#232222;" points="459.3,74.7 451.5,84.3 459.3,81.3"/>
  <polygon style="opacity:0.25;fill:#232222;" points="462.5,81.8 459.3,81.3 459.3,74.7"/>
  <polygon style="fill:#232222;" points="432.3,93 436.4,76.4 432.3,81.3"/>
  <polygon style="opacity:0.75;fill:#232222;" points="432.3,93 423,84.3 432.3,81.3"/>
  <polygon style="opacity:0.5;fill:#232222;" points="432.3,74.7 423,84.3 432.3,81.3"/>
  <polygon style="opacity:0.25;fill:#232222;" points="436.4,76.4 432.3,81.3 432.3,74.7"/>
  <polygon style="fill:#232222;" points="399.3,91.2 404,79.8 399.3,83.9"/>
  <polygon style="opacity:0.75;fill:#232222;" points="399.3,91.2 391.8,79.7 399.3,83.9"/>
  <polygon style="opacity:0.5;fill:#232222;" points="399.3,76.3 391.8,79.7 399.3,83.9"/>
  <polygon style="opacity:0.25;fill:#232222;" points="404,79.8 399.3,83.9 399.3,76.3"/>
  <polygon style="fill:#232222;" points="370.3,91.9 376,78 370.3,84.9"/>
  <polygon style="opacity:0.75;fill:#232222;" points="370.3,91.9 361.1,89.1 370.3,84.9"/>
  <polygon style="opacity:0.5;fill:#232222;" points="370.3,75.6 361.1,89.1 370.3,84.9"/>
  <polygon style="opacity:0.25;fill:#232222;" points="376,78 370.3,84.9 370.3,75.6"/>
  <polygon style="fill:#232222;" points="334.3,93 346.4,87.1 334.3,81.3"/>
  <polygon style="opacity:0.75;fill:#232222;" points="334.3,93 330.4,84.3 334.3,81.3"/>
  <polygon style="opacity:0.5;fill:#232222;" points="334.3,74.7 330.4,84.3 334.3,81.3"/>
  <polygon style="opacity:0.25;fill:#232222;" points="346.4,87.1 334.3,81.3 334.3,74.7"/>
  <polygon style="fill:#232222;" points="308.3,93 317.8,73.7 308.3,81.3"/>
  <polygon style="opacity:0.75;fill:#232222;" points="308.3,93 301,78.9 308.3,81.3"/>
  <polygon style="opacity:0.5;fill:#232222;" points="308.3,74.7 301,78.9 308.3,81.3"/>
  <polygon style="opacity:0.25;fill:#232222;" points="317.8,73.7 308.3,81.3 308.3,74.7"/>
  <polygon style="fill:#232222;" points="283.3,93 285.2,81.8 283.3,81.3"/>
  <polygon style="opacity:0.75;fill:#232222;" points="283.3,93 274.1,84.3 283.3,81.3"/>
  <polygon style="opacity:0.5;fill:#232222;" points="283.3,74.7 274.1,84.3 283.3,81.3"/>
  <polygon style="opacity:0.25;fill:#232222;" points="285.2,81.8 283.3,81.3 283.3,74.7"/>
  <polygon style="fill:#232222;" points="252.3,91.6 256.4,77.6 252.3,82.5"/>
  <polygon style="opacity:0.75;fill:#232222;" points="252.3,91.6 243,88.3 252.3,82.5"/>
  <polygon style="opacity:0.5;fill:#232222;" points="252.3,75.9 243,88.3 252.3,82.5"/>
  <polygon style="opacity:0.25;fill:#232222;" points="256.4,77.6 252.3,82.5 252.3,75.9"/>
  <polygon style="fill:#232222;" points="219.3,93 228.8,84.5 219.3,81.3"/>
  <polygon style="opacity:0.75;fill:#232222;" points="219.3,93 212.7,89.7 219.3,81.3"/>
  <polygon style="opacity:0.5;fill:#232222;" points="219.3,74.7 212.7,89.7 219.3,81.3"/>
  <polygon style="opacity:0.25;fill:#232222;" points="228.8,84.5 219.3,81.3 219.3,74.7"/>
  <polygon style="fill:#232222;" points="629.3,92.1 625.3,75.5 629.3,80.4"/>
  <polygon style="opacity:0.75;fill:#232222;" points="629.3,92.1 638.6,83.4 629.3,80.4"/>
  <polygon style="opacity:0.5;fill:#232222;" points="629.3,73.8 638.6,83.4 629.3,80.4"/>
  <polygon style="opacity:0.25;fill:#232222;" points="625.3,75.5 629.3,80.4 629.3,73.8"/>
  <polygon style="fill:#232222;" points="635.3,43.2 637.2,54.4 635.3,54.9"/>
  <polygon style="opacity:0.75;fill:#232222;" points="635.3,43.2 626.1,51.9 635.3,54.9"/>
  <polygon style="opacity:0.5;fill:#232222;" points="635.3,61.5 626.1,51.9 635.3,54.9"/>
  <polygon style="opacity:0.25;fill:#232222;" points="637.2,54.4 635.3,54.9 635.3,61.5"/>
  <polygon style="fill:#232222;" points="629.3,13.6 625.3,30.2 629.3,25.3"/>
  <polygon style="opacity:0.75;fill:#232222;" points="629.3,13.6 638.6,22.3 629.3,25.3"/>
  <polygon style="opacity:0.5;fill:#232222;" points="629.3,31.9 638.6,22.3 629.3,25.3"/>
  <polygon style="opacity:0.25;fill:#232222;" points="625.3,30.2 629.3,25.3 629.3,31.9"/>
  <g>
    <g>
      <polygon style="fill:#C33A32;" points="296.7,49.1 301.6,49.1 301.6,46.7 294.1,46.7 294.1,58.3 296.7,58.3 296.7,54 301,54 301,51.6
        296.7,51.6"/>
      <path style="fill:#C33A32;" d="M305.7,49.9c-2.4,0-4.3,1.8-4.3,4.3c0,2.5,1.9,4.3,4.3,4.3c2.4,0,4.3-1.8,4.3-4.3
        C310,51.7,308.1,49.9,305.7,49.9z M305.7,56.2c-0.9,0-1.8-0.7-1.8-2c0-1.4,0.9-2,1.8-2c1,0,1.8,0.6,1.8,2
        C307.5,55.6,306.6,56.2,305.7,56.2z"/>
      <path style="fill:#C33A32;" d="M313.2,51.3v-1.1h-2.4v8.1h2.5v-3.6c0-1.6,0.9-2.2,1.9-2.2c0.2,0,0.5,0,0.8,0.1v-2.5c-0.2,0-0.4-0.1-0.7-0.1
        C314.7,50.1,313.6,50.3,313.2,51.3z"/>
      <path style="fill:#C33A32;" d="M326.3,49.9c-1.1,0-1.9,0.4-2.5,1.3c-0.4-0.8-1.2-1.3-2.4-1.3c-0.9,0-1.9,0.5-2.3,1.2v-0.9h-2.4v8.1h2.5
        v-4.7c0-0.7,0.5-1.4,1.3-1.4c0.9,0,1.3,0.6,1.3,1.4v4.7h2.5v-4.7c0-0.7,0.5-1.4,1.4-1.4c0.9,0,1.3,0.6,1.3,1.4v4.7h2.4V53
        C329.3,50.8,327.9,49.9,326.3,49.9z"/>
      <rect x="330.6" y="50.2" style="fill:#C33A32;" width="2.5" height="8.1"/>
      <path style="fill:#C33A32;" d="M331.8,46.2c-0.8,0-1.4,0.7-1.4,1.5c0,0.8,0.7,1.5,1.4,1.5c0.8,0,1.5-0.7,1.5-1.5
        C333.3,46.9,332.7,46.2,331.8,46.2z"/>
      <path style="fill:#C33A32;" d="M342.5,46.4H340v4.4c-0.2-0.3-0.8-0.8-2.2-0.8c-2.3,0-4,1.8-4,4.2c0,2.5,1.7,4.3,4,4.3c1,0,1.8-0.4,2.2-1
        c0,0.3,0,0.7,0.1,0.8h2.4c0-0.2-0.1-0.7-0.1-1.5V46.4z M338.2,56.2c-1,0-1.8-0.7-1.8-2c0-1.4,0.9-2,1.8-2s1.8,0.7,1.8,2
        C340.1,55.6,339.2,56.2,338.2,56.2z"/>
      <path style="fill:#C33A32;" d="M350.7,53.1c0-1.7-1-3.1-3.6-3.1c-2.4,0-3.5,1.5-3.6,2.7l2.2,0.4c0-0.6,0.5-1.2,1.4-1.2
        c0.8,0,1.2,0.4,1.2,0.9c0,0.3-0.1,0.5-0.6,0.6l-1.9,0.3c-1.3,0.2-2.4,1-2.4,2.5c0,1.3,1,2.5,2.8,2.5c1.1,0,1.9-0.5,2.3-1.1
        c0,0.6,0.1,0.9,0.1,0.9h2.2c0-0.1-0.1-0.6-0.1-1.3V53.1z M348.3,55.1c0,1.3-0.8,1.6-1.5,1.6c-0.7,0-1-0.4-1-0.8
        c0-0.6,0.4-0.8,0.9-0.9l1.5-0.2V55.1z"/>
      <path style="fill:#C33A32;" d="M356.8,50c-1.1,0-2,0.5-2.4,1v-4.5H352v11.9h2.4v-0.9c0.4,0.6,1.2,1.1,2.3,1.1c2.3,0,3.9-1.8,3.9-4.3
        C360.6,51.8,359.1,50,356.8,50z M356.2,56.2c-1,0-1.9-0.7-1.9-2c0-1.4,0.9-2,1.9-2c1,0,1.8,0.6,1.8,2
        C358.1,55.6,357.2,56.2,356.2,56.2z"/>
      <rect x="361.3" y="46.4" style="fill:#C33A32;" width="2.5" height="11.9"/>
      <path style="fill:#C33A32;" d="M372.8,54.1c0-2.6-1.6-4.2-4.1-4.2c-2.1,0-4.1,1.7-4.1,4.3c0,2.7,2,4.3,4.2,4.3c2.1,0,3.4-1.2,3.8-2.6
        l-2.1-0.6c-0.2,0.6-0.7,1.1-1.6,1.1c-1,0-1.8-0.7-1.9-1.6h5.7C372.7,54.8,372.8,54.4,372.8,54.1z M367.1,53.3
        c0-0.6,0.6-1.4,1.6-1.4c1.2,0,1.6,0.8,1.6,1.4H367.1z"/>
    </g>
    <polygon style="fill:#C33A32;" points="277.3,42 272.8,60.8 277.3,55.3"/>
    <polygon style="fill:#F2E2E1;" points="277.3,42 287.9,51.8 277.3,55.3"/>
    <polygon style="fill:#DBA6A5;" points="277.3,62.8 287.9,51.8 277.3,55.3"/>
    <polygon style="fill:#CC706D;" points="272.8,60.8 277.3,55.3 277.3,62.8"/>
  </g>
  <g>
    <g>
      <rect x="144.8" y="18.8" style="fill:none;" width="120.1" height="15.7"/>
      <path style="fill:#232222;" d="M155,27.5v-4.3c0-0.5-0.1-1-0.7-1c-0.3,0-0.4,0.1-0.6,0.3c-0.3,0.3-0.4,0.9-0.4,1.5v3.6h-1v-4.2c0-0.6-0.2-1.1-0.8-1.1
        c-0.7,0-0.9,0.7-0.9,1.6v3.7h-1v-6.1h0.8l0.1,0.6c0.2-0.4,0.7-0.7,1.3-0.7c0.6,0,1.1,0.5,1.2,0.8c0.3-0.5,0.8-0.8,1.4-0.8
        c1.1,0,1.5,0.8,1.5,1.6v4.6H155z"/>
      <path style="fill:#232222;" d="M162.5,27.6c-0.5,0-0.9-0.4-0.9-0.9h0c-0.4,0.6-1.2,1-2,1c-1.5,0-2.1-0.9-2.1-1.8c0-0.9,0.6-1.9,2.2-2l1.9-0.1v-0.4
        c0-0.3,0-0.6-0.3-0.9c-0.2-0.2-0.5-0.3-1-0.3c-0.6,0-0.9,0.2-1.1,0.4c-0.2,0.2-0.3,0.4-0.3,0.7h-1c0-0.5,0.2-0.9,0.6-1.2
        c0.4-0.4,1.1-0.7,1.9-0.7c1.2,0,1.9,0.5,2.2,1.2c0.1,0.3,0.2,0.6,0.2,0.9v2.9c0,0.3,0.2,0.4,0.4,0.4c0.1,0,0.3,0,0.3,0v0.8
        C162.9,27.6,162.7,27.6,162.5,27.6z M161.5,24.6l-1.7,0.1c-0.6,0-1.3,0.3-1.3,1.1c0,0.5,0.3,1,1.2,1c0.5,0,0.9-0.2,1.3-0.5
        c0.4-0.4,0.5-0.9,0.5-1.4V24.6z"/>
      <path style="fill:#232222;" d="M169.2,27.5l-0.1-0.8c-0.3,0.6-1.2,0.9-1.9,0.9c-0.7,0-1.4-0.3-1.8-0.7c-0.6-0.6-0.9-1.5-0.9-2.5c0-1,0.3-1.9,0.9-2.5
        c0.4-0.4,1-0.7,1.7-0.7c0.8,0,1.5,0.4,1.8,0.9v-3.3h1v8.7H169.2z M168.5,22.6c-0.2-0.2-0.6-0.4-1-0.4c-0.5,0-0.9,0.2-1.1,0.5
        c-0.5,0.5-0.6,1.1-0.6,1.8c0,0.7,0.2,1.4,0.6,1.9c0.3,0.3,0.6,0.4,1.1,0.4c0.4,0,0.8-0.2,1-0.4c0.5-0.4,0.7-1.2,0.7-1.9
        S169,23,168.5,22.6z"/>
      <path style="fill:#232222;" d="M173.3,24.8c0,0.5,0.2,1.1,0.6,1.5c0.3,0.3,0.7,0.5,1.2,0.5c0.5,0,0.8-0.1,1.1-0.4c0.2-0.2,0.4-0.4,0.5-0.7h1
        c-0.3,1.3-1.3,2-2.6,2c-0.8,0-1.4-0.3-1.9-0.8c-0.6-0.6-0.9-1.5-0.9-2.4c0-0.9,0.3-1.8,0.9-2.4c0.5-0.5,1.1-0.8,1.9-0.8
        c0.8,0,1.4,0.3,1.9,0.7c0.6,0.6,0.9,1.5,0.9,2.4v0.4H173.3z M176.3,22.6c-0.3-0.3-0.7-0.5-1.2-0.5c-1.2,0-1.7,1.1-1.7,1.8h3.4
        C176.8,23.4,176.6,23,176.3,22.6z"/>
      <path style="fill:#232222;" d="M192.3,27.5h-1.2l-1.2-3.4l-1.2,3.4h-1.2l-0.8-6.1h1l0.6,4.8l1.1-3.3h1l1.1,3.2l0.6-4.8h1L192.3,27.5z"/>
      <path style="fill:#232222;" d="M195,27.5v-0.9h2.2v-4.3h-2v-0.9h3v5.2h2.2v0.9H195z M196.9,20.3v-1.4h1.5v1.4H196.9z"/>
      <path style="fill:#232222;" d="M205.7,27.6c-1.4,0-2-0.9-2-1.9v-3.4h-1.9v-0.9h1.9v-1.6l1-0.3v1.9h2.5v0.9h-2.5v3.3c0,0.6,0.4,1.1,1.1,1.1
        c0.6,0,1-0.2,1.5-0.4v0.9C206.9,27.5,206.4,27.6,205.7,27.6z"/>
      <path style="fill:#232222;" d="M213.8,27.5v-3.8c0-0.9-0.4-1.5-1.4-1.5c-0.6,0-1.1,0.4-1.4,0.9c-0.2,0.4-0.2,1.1-0.2,1.6v2.8h-1v-8.7h1v3.4
        c0.4-0.6,1.2-1,1.8-1c1.4,0,2.2,0.8,2.2,2.2v4H213.8z"/>
      <path style="fill:#232222;" d="M225.7,23.7l3.4,3.3l-0.7,0.7l-4-4l4-4l0.7,0.7L225.7,23.7z"/>
      <path style="fill:#232222;" d="M236.5,26.9c-0.4,0.5-1.1,0.8-2.1,0.8c-0.8,0-1.5-0.3-1.9-0.8c-0.4-0.4-0.7-1-0.7-1.8h1c0,0.5,0.2,0.9,0.4,1.2
        c0.3,0.3,0.6,0.5,1.2,0.5c0.5,0,1-0.2,1.2-0.5c0.2-0.3,0.4-0.6,0.4-1.1c0-1-0.7-1.5-1.8-1.5h-0.5v-0.9h0.5c1,0,1.6-0.5,1.6-1.4
        c0-0.4-0.1-0.7-0.4-1c-0.2-0.2-0.6-0.4-1.1-0.4c-0.5,0-0.8,0.1-1.1,0.3c-0.3,0.3-0.5,0.7-0.5,1.2h-1c0-0.8,0.3-1.4,0.8-1.8
        c0.5-0.4,1.1-0.6,1.8-0.6c0.7,0,1.4,0.3,1.8,0.7c0.4,0.4,0.7,0.9,0.7,1.6c0,0.8-0.5,1.6-1.2,1.9c0.9,0.3,1.4,1.2,1.4,2
        C237.2,25.9,236.9,26.5,236.5,26.9z"/>
      <path style="fill:#232222;" d="M251.6,27c-0.4,0.4-1,0.7-1.8,0.7c-0.7,0-1.5-0.3-1.9-0.9l-0.1,0.8H247v-8.7h1v3.3c0.3-0.5,1.1-0.9,1.8-0.9
        c0.7,0,1.3,0.3,1.7,0.7c0.6,0.6,0.9,1.5,0.9,2.5C252.5,25.5,252.2,26.4,251.6,27z M250.8,22.6c-0.3-0.3-0.6-0.5-1.1-0.5
        c-0.4,0-0.8,0.2-1,0.4c-0.5,0.4-0.7,1.2-0.7,1.9s0.2,1.5,0.7,1.9c0.2,0.2,0.6,0.4,1,0.4c0.5,0,0.9-0.2,1.1-0.4
        c0.5-0.5,0.6-1.2,0.6-1.9C251.4,23.8,251.3,23.1,250.8,22.6z"/>
      <path style="fill:#232222;" d="M257.1,28.8c-0.3,0.8-0.8,1.3-1.7,1.3c-0.5,0-0.9-0.1-1.1-0.2V29c0,0,0.5,0.2,0.9,0.2c0.4,0,0.7-0.2,0.9-0.6l0.4-1
        l-2.7-6.1h1.3l2,4.8l1.8-4.8h1.2L257.1,28.8z"/>
    </g>
  </g>
</g>
</svg>
